<svg width="44" height="29" viewBox="0 0 44 29" fill="none" xmlns="http://www.w3.org/2000/svg">
<path d="M14.368 4.504C15.136 4.376 15.968 4.38667 16.864 4.536C17.6747 4.664 18.3893 4.87733 19.008 5.176C19.5627 5.45333 19.9253 5.73067 20.096 6.008C20.5653 6.712 20.6613 7.61867 20.384 8.728C20.2773 9.09067 20.096 9.41067 19.84 9.688C19.5627 9.944 19.2213 10.1787 18.816 10.392C18.3467 10.648 17.8773 10.776 17.408 10.776C17.1733 10.776 17.0027 10.68 16.896 10.488C16.832 10.3813 16.8427 10.1467 16.928 9.784C17.1627 8.99467 17.0773 8.376 16.672 7.928C16.3093 7.50133 15.4133 7.192 13.984 7C13.792 6.97867 13.6 6.95733 13.408 6.936C12.448 6.89333 11.6053 7.08533 10.88 7.512C10.2827 7.87467 9.86667 8.472 9.632 9.304C9.52533 9.79467 9.52533 10.2747 9.632 10.744C9.80267 11.3413 10.1227 11.8747 10.592 12.344C11.1253 12.8347 12.0213 13.4 13.28 14.04C14.304 14.552 15.0827 14.9787 15.616 15.32C17.152 16.3227 18.0587 17.4533 18.336 18.712C18.4213 19.3093 18.4107 19.896 18.304 20.472C18.1547 21.2187 17.8347 21.976 17.344 22.744C16.064 24.664 14.0907 26.072 11.424 26.968C10.7627 27.1813 10.0907 27.352 9.408 27.48C8.74667 27.608 7.968 27.672 7.072 27.672C6.368 27.6933 5.76 27.6507 5.248 27.544C3.56267 27.1813 2.21867 26.3493 1.216 25.048C0.512 24.0667 0.384 22.9253 0.832 21.624C1.19467 20.4933 1.84533 19.608 2.784 18.968C3.552 18.456 4.352 18.168 5.184 18.104C5.44 18.104 5.61067 18.1253 5.696 18.168C5.99467 18.3387 6.048 18.616 5.856 19C5.64267 19.4693 5.19467 19.8747 4.512 20.216L4.32 20.312L4.224 20.632C4.07467 21.1013 4.032 21.5067 4.096 21.848C4.11733 22.1893 4.224 22.52 4.416 22.84C4.928 23.5867 5.57867 24.152 6.368 24.536C7.712 25.1547 9.17333 25.336 10.752 25.08C12.992 24.6747 14.336 23.608 14.784 21.88C15.104 20.664 14.7733 19.5547 13.792 18.552C13.1093 17.8907 12.0213 17.1973 10.528 16.472C9.61067 16.0027 9.14133 15.768 9.12 15.768C7.008 14.5307 5.984 13.0693 6.048 11.384C6.06933 10.744 6.25067 10.072 6.592 9.368C7.36 7.832 8.72533 6.57333 10.688 5.592C11.9253 4.99467 13.152 4.632 14.368 4.504ZM22.0623 5.176C22.4249 5.09067 22.9476 5.112 23.6302 5.24C24.2276 5.34667 24.8783 5.656 25.5823 6.168C27.3956 7.53333 28.4516 10.4987 28.7503 15.064C28.8569 16.664 28.8356 18.5307 28.6863 20.664C28.6436 21.7947 28.5689 22.6693 28.4623 23.288V23.416L28.6543 23.256C32.2169 20.184 34.8836 17.3253 36.6543 14.68C37.4649 13.4427 37.9769 12.4293 38.1903 11.64C38.2969 11.256 38.2969 10.8613 38.1903 10.456C37.9769 9.88 37.6143 9.45333 37.1023 9.176C36.7396 9.00533 36.3449 8.89867 35.9183 8.856C35.7476 8.856 35.6196 8.83467 35.5343 8.792C35.2783 8.62133 35.1823 8.25867 35.2463 7.704C35.3103 6.78667 35.6303 6.04 36.2063 5.464C36.3343 5.35733 36.4516 5.272 36.5583 5.208C36.6649 5.16533 36.8463 5.144 37.1023 5.144C37.7423 5.16533 38.3289 5.368 38.8623 5.752C39.4596 6.15733 39.8863 6.75467 40.1423 7.544C40.5476 8.696 40.5263 10.04 40.0783 11.576C39.1396 15.096 36.4303 19.0747 31.9503 23.512C29.8596 25.56 27.8863 27.256 26.0303 28.6C25.7743 28.7707 25.5823 28.856 25.4543 28.856C25.3476 28.856 25.2516 28.8133 25.1663 28.728C24.9103 28.472 24.8463 27.96 24.9743 27.192C25.2516 25.6133 25.4436 23.8533 25.5503 21.912C25.7636 18.9893 25.6996 16.3227 25.3583 13.912C24.9743 11.16 24.1743 9.28267 22.9583 8.28C22.3823 7.81067 21.6463 7.544 20.7503 7.48C20.5796 7.48 20.4196 7.43733 20.2703 7.352C19.9929 7.20267 19.9396 6.92533 20.1103 6.52C20.2809 6.22133 20.5049 5.96533 20.7823 5.752C21.2089 5.432 21.6356 5.24 22.0623 5.176Z" fill="white"/>
</svg>
